<svg width="88" height="88" viewBox="0 0 88 88" fill="none" xmlns="http://www.w3.org/2000/svg">
<g filter="url(#filter0_d_11686_1662)">
<circle cx="44" cy="42" r="24" fill="white"/>
<circle cx="44" cy="42" r="23.5" stroke="#F2F2F2"/>
</g>
<path d="M48.175 43.0001H37C36.7167 43.0001 36.4792 42.9043 36.2875 42.7126C36.0958 42.5209 36 42.2834 36 42.0001C36 41.7168 36.0958 41.4793 36.2875 41.2876C36.4792 41.0959 36.7167 41.0001 37 41.0001H48.175L43.275 36.1001C43.075 35.9001 42.9792 35.6668 42.9875 35.4001C42.9958 35.1334 43.1 34.9001 43.3 34.7001C43.5 34.5168 43.7333 34.4209 44 34.4126C44.2667 34.4043 44.5 34.5001 44.7 34.7001L51.3 41.3001C51.4 41.4001 51.4708 41.5084 51.5125 41.6251C51.5542 41.7418 51.575 41.8668 51.575 42.0001C51.575 42.1334 51.5542 42.2584 51.5125 42.3751C51.4708 42.4918 51.4 42.6001 51.3 42.7001L44.7 49.3001C44.5167 49.4834 44.2875 49.5751 44.0125 49.5751C43.7375 49.5751 43.5 49.4834 43.3 49.3001C43.1 49.1001 43 48.8626 43 48.5876C43 48.3126 43.1 48.0751 43.3 47.8751L48.175 43.0001Z" fill="#31302F"/>
<defs>
<filter id="filter0_d_11686_1662" x="0" y="0" width="88" height="88" filterUnits="userSpaceOnUse" color-interpolation-filters="sRGB">
<feFlood flood-opacity="0" result="BackgroundImageFix"/>
<feColorMatrix in="SourceAlpha" type="matrix" values="0 0 0 0 0 0 0 0 0 0 0 0 0 0 0 0 0 0 127 0" result="hardAlpha"/>
<feOffset dy="2"/>
<feGaussianBlur stdDeviation="10"/>
<feComposite in2="hardAlpha" operator="out"/>
<feColorMatrix type="matrix" values="0 0 0 0 0 0 0 0 0 0 0 0 0 0 0 0 0 0 0.04 0"/>
<feBlend mode="normal" in2="BackgroundImageFix" result="effect1_dropShadow_11686_1662"/>
<feBlend mode="normal" in="SourceGraphic" in2="effect1_dropShadow_11686_1662" result="shape"/>
</filter>
</defs>
</svg>
