
<svg width="48" height="48" viewBox="20 18 48 48" fill="none" xmlns="http://www.w3.org/2000/svg">
  <circle cx="44" cy="42" r="24" fill="white"/>
  <circle cx="44" cy="42" r="23.5" stroke="#F2F2F2"/>
  
  <path d="M39.825 41H51C51.2833 41 51.5208 41.0958 51.7125 41.2875C51.9042 41.4792 52 41.7167 52 42C52 42.2833 51.9042 42.5208 51.7125 42.7125C51.5208 42.9042 51.2833 43 51 43H39.825L44.725 47.9C44.925 48.1 45.0208 48.3333 45.0125 48.6C45.0042 48.8667 44.9 49.1 44.7 49.3C44.5 49.4833 44.2667 49.5792 44 49.5875C43.7333 49.5958 43.5 49.5 43.3 49.3L36.7 42.7C36.6 42.6 36.5292 42.4917 36.4875 42.375C36.4458 42.2583 36.425 42.1333 36.425 42C36.425 41.8667 36.4458 41.7417 36.4875 41.625C36.5292 41.5083 36.6 41.4 36.7 41.3L43.3 34.7C43.4833 34.5167 43.7125 34.425 43.9875 34.425C44.2625 34.425 44.5 34.5167 44.7 34.7C44.9 34.9 45 35.1375 45 35.4125C45 35.6875 44.9 35.925 44.7 36.125L39.825 41Z" fill="#31302F"/>
</svg>