<svg width="48" height="48" viewBox="20 18 48 48" fill="none" xmlns="http://www.w3.org/2000/svg">
  <circle cx="44" cy="42" r="24" fill="white"/>
  <circle cx="44" cy="42" r="23.5" stroke="#F2F2F2"/>
  
  <path d="M48.175 43H37C36.7167 43 36.4792 42.9042 36.2875 42.7125C36.0958 42.5208 36 42.2833 36 42C36 41.7167 36.0958 41.4792 36.2875 41.2875C36.4792 41.0958 36.7167 41 37 41H48.175L43.275 36.1C43.075 35.9 42.9792 35.6667 42.9875 35.4C42.9958 35.1333 43.1 34.9 43.3 34.7C43.5 34.5167 43.7333 34.4208 44 34.4125C44.2667 34.4042 44.5 34.5 44.7 34.7L51.3 41.3C51.4 41.4 51.4708 41.5083 51.5125 41.625C51.5542 41.7417 51.575 41.8667 51.575 42C51.575 42.1333 51.5542 42.2583 51.5125 42.375C51.4708 42.4917 51.4 42.6 51.3 42.7L44.7 49.3C44.5167 49.4833 44.2875 49.575 44.0125 49.575C43.7333 49.575 43.5 49.4833 43.3 49.3C43.1 49.1 43 48.8625 43 48.5875C43 48.3125 43.1 48.075 43.3 47.875L48.175 43Z" fill="#31302F"/>
</svg>